<svg xmlns="http://www.w3.org/2000/svg" xmlns:xlink="http://www.w3.org/1999/xlink" version="1.1" x="0px" y="0px" viewBox="0 0 100 125" style="enable-background:new 0 0 100 100;" xml:space="preserve"><path d="M60.54,35.028c-4.799,5.221-9.466,11.241-14.266,18.404C42.726,49.827,31.181,41.01,25.87,41.01  c-0.733,0-1.349,0.164-1.833,0.488c-0.216,0.145-0.332,0.4-0.3,0.658c0.132,1.044,0.953,1.842,1.677,2.545  c0.257,0.25,0.5,0.485,0.69,0.71l0.024,0.028l0.027,0.026c7.987,7.581,14.389,15.968,19.029,24.928  c0.476,0.917,1.412,1.487,2.444,1.488l0,0c1.068,0,2.042-0.619,2.494-1.587c14.172-30.339,28.53-43.639,34.66-49.318  c2.615-2.423,3.698-3.426,3.608-4.44l0,0c-0.022-0.248-0.177-0.466-0.404-0.567c-0.228-0.102-0.5-0.154-0.809-0.154  c-1.977,0-5.993,2.228-9.014,4.096l-0.01,0.006c-3.133,2.012-6.252,4.358-9.269,6.971C66.078,29.319,63.27,32.058,60.54,35.028z   M86.856,34.429c-0.973-2.3-2.149-4.488-3.519-6.549c-0.892,0.887-1.852,1.87-2.87,2.961C83.971,36.393,86,42.964,86,50  c0,19.851-16.149,36-36,36S14,69.851,14,50s16.149-36,36-36c7.61,0,14.676,2.373,20.496,6.419c1.133-0.868,2.276-1.697,3.423-2.487  c-2.572-1.924-5.365-3.525-8.348-4.788C60.638,11.058,55.399,10,50,10s-10.637,1.058-15.571,3.144  c-4.764,2.014-9.041,4.899-12.714,8.572c-3.673,3.673-6.556,7.95-8.572,12.714C11.058,39.363,10,44.601,10,50  s1.058,10.637,3.144,15.571c2.015,4.764,4.899,9.041,8.572,12.714c3.673,3.673,7.95,6.556,12.714,8.572  C39.363,88.942,44.601,90,50,90s10.638-1.058,15.571-3.144c4.764-2.014,9.041-4.899,12.714-8.572  c3.673-3.673,6.556-7.95,8.572-12.714C88.942,60.637,90,55.399,90,50S88.942,39.363,86.856,34.429z"/><text x="0" y="115" fill="#000000" font-size="5px" font-weight="bold" font-family="'Helvetica Neue', Helvetica, Arial-Unicode, Arial, Sans-serif">Created by 4urbrand</text><text x="0" y="120" fill="#000000" font-size="5px" font-weight="bold" font-family="'Helvetica Neue', Helvetica, Arial-Unicode, Arial, Sans-serif">from the Noun Project</text></svg>